<svg width="64" height="58" viewBox="0 0 64 58" fill="none" xmlns="http://www.w3.org/2000/svg">
<path d="M21.6296 38.0741V35.4815H24.2222V26.4074C24.2222 24.6142 24.7624 23.0206 25.8426 21.6267C26.9228 20.2336 28.3272 19.321 30.0556 18.8889V17.9815C30.0556 17.4414 30.2448 16.9825 30.6233 16.6048C31.001 16.2263 31.4599 16.037 32 16.037C32.5401 16.037 32.999 16.2263 33.3767 16.6048C33.7552 16.9825 33.9445 17.4414 33.9445 17.9815V18.8889C35.6728 19.321 37.0772 20.2336 38.1574 21.6267C39.2377 23.0206 39.7778 24.6142 39.7778 26.4074V35.4815H42.3704V38.0741H21.6296ZM32 41.963C31.287 41.963 30.6769 41.7093 30.1696 41.202C29.6615 40.6939 29.4074 40.0833 29.4074 39.3704H34.5926C34.5926 40.0833 34.339 40.6939 33.8317 41.202C33.3235 41.7093 32.713 41.963 32 41.963ZM26.8148 35.4815H37.1852V26.4074C37.1852 24.9815 36.6775 23.7608 35.662 22.7454C34.6466 21.73 33.4259 21.2222 32 21.2222C30.5741 21.2222 29.3534 21.73 28.338 22.7454C27.3225 23.7608 26.8148 24.9815 26.8148 26.4074V35.4815Z" fill="white"/>
</svg>
