<svg width="64" height="58" viewBox="0 0 64 58" fill="none" xmlns="http://www.w3.org/2000/svg">
<path d="M22.6667 41C21.9333 41 21.3056 40.7389 20.7833 40.2167C20.2611 39.6944 20 39.0667 20 38.3333V19.6667C20 18.9333 20.2611 18.3056 20.7833 17.7833C21.3056 17.2611 21.9333 17 22.6667 17H41.3333C42.0667 17 42.6944 17.2611 43.2167 17.7833C43.7389 18.3056 44 18.9333 44 19.6667V38.3333C44 39.0667 43.7389 39.6944 43.2167 40.2167C42.6944 40.7389 42.0667 41 41.3333 41H22.6667ZM22.6667 34.3333V38.3333H41.3333V34.3333H22.6667ZM22.6667 31.6667H41.3333V19.6667H22.6667V31.6667Z" fill="white"/>
</svg>
