<svg width="64" height="58" viewBox="0 0 64 58" fill="none" xmlns="http://www.w3.org/2000/svg">
<path d="M20.8889 41C20.4954 41 20.1655 40.8647 19.8993 40.5941C19.6331 40.3235 19.5 39.9882 19.5 39.5882C19.5 39.1882 19.6331 38.8529 19.8993 38.5824C20.1655 38.3118 20.4954 38.1765 20.8889 38.1765H34.7778C35.1713 38.1765 35.5012 38.3118 35.7674 38.5824C36.0336 38.8529 36.1667 39.1882 36.1667 39.5882C36.1667 39.9882 36.0336 40.3235 35.7674 40.5941C35.5012 40.8647 35.1713 41 34.7778 41H20.8889ZM37.5556 31.1176C35.6343 31.1176 33.9965 30.4294 32.6424 29.0529C31.2882 27.6765 30.6111 26.0118 30.6111 24.0588C30.6111 22.1059 31.2882 20.4412 32.6424 19.0647C33.9965 17.6882 35.6343 17 37.5556 17C39.4769 17 41.1146 17.6882 42.4688 19.0647C43.8229 20.4412 44.5 22.1059 44.5 24.0588C44.5 26.0118 43.8229 27.6765 42.4688 29.0529C41.1146 30.4294 39.4769 31.1176 37.5556 31.1176ZM20.8889 29.7059C20.4954 29.7059 20.1655 29.5706 19.8993 29.3C19.6331 29.0294 19.5 28.6941 19.5 28.2941C19.5 27.8941 19.6331 27.5588 19.8993 27.2882C20.1655 27.0176 20.4954 26.8824 20.8889 26.8824H28.25C28.412 27.4 28.5972 27.8941 28.8056 28.3647C29.0139 28.8353 29.2685 29.2824 29.5694 29.7059H20.8889ZM20.8889 35.3529C20.4954 35.3529 20.1655 35.2176 19.8993 34.9471C19.6331 34.6765 19.5 34.3412 19.5 33.9412C19.5 33.5412 19.6331 33.2059 19.8993 32.9353C20.1655 32.6647 20.4954 32.5294 20.8889 32.5294H32.5556C33.088 32.8588 33.6551 33.1353 34.2569 33.3588C34.8588 33.5824 35.4954 33.7412 36.1667 33.8353V33.9412C36.1667 34.3412 36.0336 34.6765 35.7674 34.9471C35.5012 35.2176 35.1713 35.3529 34.7778 35.3529H20.8889ZM37.5556 25.4706C37.7407 25.4706 37.9028 25.4 38.0417 25.2588C38.1806 25.1176 38.25 24.9529 38.25 24.7647V20.5294C38.25 20.3412 38.1806 20.1765 38.0417 20.0353C37.9028 19.8941 37.7407 19.8235 37.5556 19.8235C37.3704 19.8235 37.2083 19.8941 37.0694 20.0353C36.9306 20.1765 36.8611 20.3412 36.8611 20.5294V24.7647C36.8611 24.9529 36.9306 25.1176 37.0694 25.2588C37.2083 25.4 37.3704 25.4706 37.5556 25.4706ZM37.5556 28.2941C37.7407 28.2941 37.9028 28.2235 38.0417 28.0824C38.1806 27.9412 38.25 27.7765 38.25 27.5882C38.25 27.4 38.1806 27.2353 38.0417 27.0941C37.9028 26.9529 37.7407 26.8824 37.5556 26.8824C37.3704 26.8824 37.2083 26.9529 37.0694 27.0941C36.9306 27.2353 36.8611 27.4 36.8611 27.5882C36.8611 27.7765 36.9306 27.9412 37.0694 28.0824C37.2083 28.2235 37.3704 28.2941 37.5556 28.2941Z" fill="white"/>
</svg>
