<svg width="64" height="58" viewBox="0 0 64 58" fill="none" xmlns="http://www.w3.org/2000/svg">
<path d="M30.7819 39.8571H22.7849C21.5168 39.8571 20.5 38.8286 20.5 37.5714L20.5114 21.5714C20.5114 20.3143 21.5168 19.2857 22.7849 19.2857H23.9273V17H26.2122V19.2857H35.3516V17H37.6365V19.2857H38.7789C40.0356 19.2857 41.0638 20.3143 41.0638 21.5714V28.4286H38.7789V26.1429H22.7849V37.5714H30.7819V39.8571ZM42.3547 34.1314L43.1658 33.32C43.6114 32.8743 43.6114 32.1543 43.1658 31.7086L42.3547 30.8971C41.9092 30.4514 41.1894 30.4514 40.7439 30.8971L39.9328 31.7086L42.3547 34.1314ZM41.5436 34.9429L35.4887 41H33.0667V38.5771L39.1216 32.52L41.5436 34.9429Z" fill="white"/>
</svg>
