<svg width="28" height="28" viewBox="0 0 28 28" fill="none" xmlns="http://www.w3.org/2000/svg">
<path d="M11.6668 16.3333H16.3335V13.9999H11.6668V16.3333ZM11.6668 12.8333H21.0002V10.4999H11.6668V12.8333ZM11.6668 9.33325H21.0002V6.99992H11.6668V9.33325ZM9.3335 20.9999C8.69183 20.9999 8.14272 20.7716 7.68616 20.3151C7.22961 19.8585 7.00094 19.309 7.00016 18.6666V4.66659C7.00016 4.02492 7.22883 3.47581 7.68616 3.01925C8.1435 2.5627 8.69261 2.33403 9.3335 2.33325H23.3335C23.9752 2.33325 24.5247 2.56192 24.982 3.01925C25.4393 3.47659 25.6676 4.0257 25.6668 4.66659V18.6666C25.6668 19.3083 25.4386 19.8578 24.982 20.3151C24.5254 20.7724 23.9759 21.0007 23.3335 20.9999H9.3335ZM9.3335 18.6666H23.3335V4.66659H9.3335V18.6666ZM4.66683 25.6666C4.02516 25.6666 3.47605 25.4383 3.0195 24.9818C2.56294 24.5252 2.33427 23.9757 2.3335 23.3333V6.99992H4.66683V23.3333H21.0002V25.6666H4.66683Z" fill="currentColor"/>
</svg>
